<?xml version="1.0" encoding="UTF-8" standalone="no"?>
<!-- Generator: Adobe Illustrator 19.2.1, SVG Export Plug-In . SVG Version: 6.00 Build 0)  -->

<svg
   version="1.1"
   id="Layer_1"
   x="0px"
   y="0px"
   width="78.205818"
   height="73"
   viewBox="0 0 78.205818 73"
   xml:space="preserve"
   sodipodi:docname="gift.svg"
   inkscape:version="1.1.2 (0a00cf5339, 2022-02-04, custom)"
   xmlns:inkscape="http://www.inkscape.org/namespaces/inkscape"
   xmlns:sodipodi="http://sodipodi.sourceforge.net/DTD/sodipodi-0.dtd"
   xmlns="http://www.w3.org/2000/svg"
   xmlns:svg="http://www.w3.org/2000/svg"><defs
   id="defs1206" /><sodipodi:namedview
   id="namedview1204"
   pagecolor="#ffffff"
   bordercolor="#666666"
   borderopacity="1.0"
   inkscape:pageshadow="2"
   inkscape:pageopacity="0.0"
   inkscape:pagecheckerboard="0"
   showgrid="false"
   fit-margin-top="0"
   fit-margin-left="0"
   fit-margin-right="0"
   fit-margin-bottom="0"
   inkscape:zoom="9.7333333"
   inkscape:cx="18.082192"
   inkscape:cy="47.671233"
   inkscape:window-width="2560"
   inkscape:window-height="1377"
   inkscape:window-x="-8"
   inkscape:window-y="-8"
   inkscape:window-maximized="1"
   inkscape:current-layer="Layer_1" />
<path
   d="M 33.889186,26.076511 V 36.503953 H 0 V 26.076511 Z m 10.427442,0 V 36.503953 H 78.205815 V 26.076511 Z M 5.213721,41.717674 V 65.179418 C 5.213721,69.498465 8.715256,73 13.034302,73 H 33.889186 V 41.717674 Z m 39.102907,0 V 73 h 20.854884 c 4.319047,0 7.820582,-3.501535 7.820582,-7.820582 V 41.717674 Z M 54.74407,0.00790635 C 47.427656,-0.22358286 40.929274,4.6502035 39.102907,11.738778 37.276541,4.6502035 30.778159,-0.22358286 23.461744,0.00790635 17.878371,-0.16779605 13.210005,4.2164219 13.034302,9.7997957 c -0.0068,0.2116763 -0.0068,0.4238753 0,0.6355523 -0.811776,4.914975 2.514057,9.557272 7.429031,10.369048 0.836281,0.138164 1.687682,0.157976 2.529177,0.05839 h 31.960109 c 4.978061,0.780494 9.646948,-2.62198 10.427442,-7.600041 0.147027,-0.936906 0.147027,-1.890495 0,-2.827401 0.001,-5.7590759 -4.66628,-10.4284844 -10.425356,-10.42952714 -0.07039,0 -0.14025,5.2137e-4 -0.210635,0.00208549 z M 23.461744,15.649069 c -2.638142,0.241395 -4.972325,-1.701759 -5.213721,-4.33938 -0.02659,-0.290926 -0.02659,-0.583416 0,-0.874341 -0.241395,-2.6381426 1.701759,-4.9723254 4.33938,-5.2137207 0.290926,-0.02659 0.583416,-0.02659 0.874341,0 5.759077,0 10.427442,4.6683657 10.427442,10.4274417 z m 31.282326,0 H 44.316628 c 0,-5.759076 4.668366,-10.4274417 10.427442,-10.4274417 2.879538,0 5.213721,2.3341829 5.213721,5.2137207 0.241395,2.638143 -1.701758,4.972326 -4.33938,5.213721 -0.290925,0.02659 -0.583415,0.02659 -0.874341,0 z"
   id="path1201"
   style="stroke-width:5.21372" />
</svg>
